# xmcd
#
# Track frame offsets: 
#        150
#        9658
#        20775
#        33355
#        42797
#        54959
#        65769
#        78509
#        90904
#        101161
#        114500
#        126700
#        138750
#        148596
#        160479
#        171373
#        184562
#        197114
#        209241
#        221789
#        233237
#        245650
#        258111
#        271290
#        285817
#        298129
#        309396
#        321363
#        333330
#        347996
#
# Disc length: 4791 seconds
#
# Revision: 0
# Processed by: cddbd v1.5.2PL0 Copyright (c) Steve Scherf et al.
# Submitted via: ExactAudioCopy v0.99pb3
#
DISCID=d012b51e
DTITLE=Sam Cooke - Portrait Of A Legend
DYEAR=1900
DGENRE=Blues
TTITLE0=Touch The Hem Of His Garment
TTITLE1=Lovable
TTITLE2=You Send Me
TTITLE3=Only Sixteen
TTITLE4=I Love You For Sentimental Reasons
TTITLE5=Just For You
TTITLE6=Win Your Love For Me
TTITLE7=Everybody Loves To Cha Cha
TTITLE8=I'll Come Running Back To You
TTITLE9=You Were Made For Me
TTITLE10=Sad Mood
TTITLE11=Cupid
TTITLE12=(What A) Wonderful World
TTITLE13=Chain Gang
TTITLE14=Summertime
TTITLE15=Little Red Rooster
TTITLE16=Bring It On Home To Me
TTITLE17=Nothing Can Change This Love
TTITLE18=Sugar Dumpling
TTITLE19=(Ain't That Good News)
TTITLE20=Meet Me At Mary's Place
TTITLE21=Twistin' The Night away
TTITLE22=Shake
TTITLE23=Tennessee Waltz
TTITLE24=Another Saturday Night
TTITLE25=Good Times
TTITLE26=Having A Party
TTITLE27=That's Where It's At
TTITLE28=A Change Is Gonna Come
TTITLE29=Jesus Gave Me Water
EXTD=
EXTT0=
EXTT1=
EXTT2=
EXTT3=
EXTT4=
EXTT5=
EXTT6=
EXTT7=
EXTT8=
EXTT9=
EXTT10=
EXTT11=
EXTT12=
EXTT13=
EXTT14=
EXTT15=
EXTT16=
EXTT17=
EXTT18=
EXTT19=
EXTT20=
EXTT21=
EXTT22=
EXTT23=
EXTT24=
EXTT25=
EXTT26=
EXTT27=
EXTT28=
EXTT29=
PLAYORDER=
